<?xml version="1.0" encoding="utf-8"?>
<!-- Generator: Adobe Illustrator 19.2.1, SVG Export Plug-In . SVG Version: 6.00 Build 0)  -->
<svg version="1.1" id="layer" xmlns="http://www.w3.org/2000/svg" xmlns:xlink="http://www.w3.org/1999/xlink" x="0px" y="0px"
	 viewBox="0 0 652 652" style="enable-background:new 0 0 652 652;" xml:space="preserve">
<style type="text/css">
	.st0{fill:#061B2B;}
</style>
<path class="st0" d="M59.4,369.4c-9.4,0-17.3-2.1-23.7-6.2c-6.5-4.2-11-9.8-13.6-17l16-9.2c3.7,9.6,11,14.4,21.8,14.4
	c5.3,0,9.1-0.9,11.6-2.8c2.4-1.9,3.7-4.2,3.7-7.1c0-3.3-1.5-5.9-4.4-7.7c-3-1.8-8.3-3.8-16-6c-4.3-1.3-8-2.5-10.9-3.8
	c-3-1.3-5.8-2.9-8.8-5c-3-2.1-5.2-4.8-6.8-8c-1.5-3.2-2.3-7-2.3-11.3c0-8.5,3.1-15.3,9.2-20.3c6.1-5,13.5-7.6,22.1-7.6
	c7.7,0,14.4,1.8,20.3,5.6c5.8,3.7,10.4,8.9,13.6,15.5l-15.7,9c-3.8-8.1-9.9-12.1-18.1-12.1c-3.9,0-6.9,0.9-9.2,2.7
	c-2.2,1.7-3.3,4-3.3,6.8c0,2.9,1.2,5.3,3.7,7.1c2.5,1.8,7.2,3.8,14.3,6c2.9,0.9,5.1,1.6,6.6,2.1c1.5,0.5,3.5,1.2,6.1,2.2
	c2.6,1,4.5,2,6,2.8c1.4,0.9,3,2.1,4.8,3.7c1.9,1.6,3.1,3.1,4.2,4.7c1,1.6,1.8,3.6,2.4,5.9c0.6,2.3,1,4.8,1,7.4
	c0,8.7-3.1,15.6-9.5,20.7C77.9,366.8,69.6,369.4,59.4,369.4z M160.3,273.6H179v94h-14.3L124,310.1v57.4h-18.6v-94h14.3l40.7,57.2
	L160.3,273.6L160.3,273.6z M289.8,317v7.2c0,13.5-4.3,24.3-13,32.6c-8.7,8.3-19.9,12.5-33.6,12.5c-14.6,0-26.7-4.8-36.5-14.2
	c-9.6-9.4-14.4-21-14.4-34.5c0-13.6,4.8-25.3,14.3-34.8c9.5-9.3,21.4-14.1,35.4-14.1c8.9,0,16.9,2,24.2,6c7.3,4,13,9.2,17.1,15.9
	l-16,9.2c-2.2-3.8-5.6-7-10.3-9.4c-4.5-2.4-9.6-3.7-15.3-3.7c-9.1,0-16.5,2.9-22.3,8.8c-5.8,5.9-8.8,13.3-8.8,22.3
	c0,8.9,3,16.2,8.9,22c6,5.8,13.9,8.6,23.6,8.6c7.2,0,13.2-1.6,18-4.8c4.7-3.2,8-7.5,9.7-13.1h-28.8V317H289.8z M337.9,369.4
	c-10.5,0-19.2-2.9-26-8.9c-6.8-5.9-10.2-13.8-10.2-23.7v-63.2h18.6v61.7c0,4.9,1.4,8.8,4.3,11.6c2.9,2.8,7.3,4.3,13.3,4.3
	s10.5-1.5,13.3-4.3c2.9-2.8,4.3-6.8,4.3-11.6v-61.7h18.7v63.2c0,9.9-3.4,17.9-10.2,23.7C357.2,366.4,348.5,369.4,337.9,369.4z
	 M409.7,349.8h36.2v17.7h-55v-93.9h18.7L409.7,349.8L409.7,349.8z M521.6,367.4l-6-16.9h-39l-5.7,16.9h-20.2l33.1-93.9h23.2l33.5,94
	L521.6,367.4L521.6,367.4z M482.7,333.3h26.7l-13.7-38.4L482.7,333.3z M601.9,367.4l-19.2-32.6h-14.2v32.6h-18.7v-93.9h37.9
	c8.8,0,16.2,3,22.4,9.2c6.2,6,9.3,13.5,9.3,22c0,5.9-1.7,11.2-5,16.2c-3.3,4.9-7.8,8.7-13.3,11.2l21,35.4L601.9,367.4L601.9,367.4z
	 M568.5,290.9v27.7h19.2c3.5,0,6.6-1.4,9.1-4.1c2.5-2.7,3.8-6,3.8-9.9s-1.3-7.1-3.8-9.8c-2.5-2.7-5.6-4-9.1-4L568.5,290.9
	L568.5,290.9z"/>
</svg>
